<?xml version="1.0" encoding="utf-8"?>
<!-- Generator: Adobe Illustrator 25.4.1, SVG Export Plug-In . SVG Version: 6.00 Build 0)  -->
<svg version="1.0" id="katman_1" xmlns="http://www.w3.org/2000/svg" xmlns:xlink="http://www.w3.org/1999/xlink" x="0px" y="0px"
	 viewBox="0 50 555.9 318.4" style="enable-background:new 0 0 555.9 418.4;" xml:space="preserve">
<style type="text/css">
	.st0{fill:#010202;}
</style>
<path class="st0" d="M366.1,182.2h9.1v46.7h39.5l-5.8,9.1h-42.8V182.2z M294.5,238l-33.7-53.2c-2.1-3.5-7.6-3.5-9.9,0.1l-33.4,53h11
	l10.1-16h21.5l5.7-9.1h-21.5l11.7-18.4l27.5,43.5H294.5z M315,182.2c-15.4,0-25.5,12.5-25.5,27.9c0,15.4,10.1,27.9,25.5,27.9l37.4,0
	l5.9-9h-43c-10.4,0-16.4-8.4-16.4-18.8c0-10.4,6.1-18.8,16.4-18.8h38.3l5.7-9.1L315,182.2z M81.4,191.3h39.5
	c10.4,0,16.5,8.4,16.5,18.8c0,10.4-6.1,18.8-16.5,18.8H81.4c-10.4,0-16.4-8.4-16.4-18.8C65,199.7,71,191.3,81.4,191.3z M81.4,182.2
	c-15.4,0-25.5,12.5-25.5,27.9c0,15.4,10.1,27.9,25.5,27.9h39.5c15.4,0,25.5-12.5,25.5-27.9c0-15.4-10.1-27.9-25.5-27.9H81.4z
	 M424.4,214.5c1.5,8.2,7.2,14.4,16,14.4h43l-5.9,9l-37.4,0c-15.4,0-25.5-12.5-25.5-27.9c0-15.4,10.1-27.9,25.5-27.9l44.2,0l-5.7,9.1
	h-38.3c-8.7,0-14.4,6-16,14.1h54.1l-5.8,9.1L424.4,214.5L424.4,214.5z M198,215.3c9-0.2,16.3-7.5,16.3-16.6c0-9-7.2-16.4-16.3-16.6
	l-46.5,0V238h10.2v-46.7H198c4.1,0,7.5,3.3,7.5,7.5c0,4.1-3.3,7.5-7.5,7.5h-29.1l32.8,31.7h13.2l-23.5-22.6L198,215.3z M493.9,182.2
	c2.4,0,4.2,1.9,4.2,4.4c0,2.5-1.9,4.4-4.2,4.4c-2.4,0-4.3-1.9-4.3-4.4C489.7,184.1,491.5,182.2,493.9,182.2v-0.9
	c-2.9,0-5.3,2.2-5.3,5.2c0,3,2.4,5.3,5.3,5.3c2.9,0,5.3-2.2,5.3-5.3c0-3-2.4-5.2-5.3-5.2V182.2z"/>
<path class="st0" d="M492.8,184.4h1.3c0.6,0,1.3,0.1,1.3,0.9c0,0.9-0.7,1-1.5,1h-1.1v0.8h1.1l1.6,2.6h1l-1.7-2.7
	c0.9-0.1,1.6-0.6,1.6-1.7c0-1.2-0.7-1.7-2.1-1.7h-2.3v6h0.9L492.8,184.4L492.8,184.4z"/>
</svg>
